# xmcd
#
# Track frame offsets:
#	150
#	13383
#	26155
#	39943
#	49733
#	62613
#	75450
#	87763
#	100895
#	115133
#
# Disc length: 1690 seconds
#
# Revision: 4
# Processed by: cddbd v1.5.1PL0 Copyright (c) Steve Scherf et al.
# Submitted via: audiograbber 1.83.01
#
DISCID=7406980a
DTITLE=Various Artist - Blues Legends
DYEAR=1993
DGENRE=Blues
TTITLE0=Little Walter - I Keep Loving Her
TTITLE1=Robert Nighthawk - Take It Easy Baby
TTITLE2=Memphis Slim - Memphis Slim U.S.A.
TTITLE3=Sleepy John Estes - Drop Down Mama
TTITLE4=Sunnyland Slim - Low Down Sunnyland Train
TTITLE5=Little Walter - Rollin' And Tumblin'
TTITLE6=Robert Nighthawk - Kansas City
TTITLE7=Memphis Slim - Sassy Mae
TTITLE8=Sleepy John Estes - Rats In My Kitchen
TTITLE9=Sunnyland Slim - I'm Just A Lonesome Man
EXTD=YEAR: 1993 ID3G: 0
EXTT0=Little Walter
EXTT1=Robert Nighthawk
EXTT2=Memphis Slim
EXTT3=Sleepy John Estes
EXTT4=Sunnyland Slim
EXTT5=Little Walter
EXTT6=Robert Nighthawk
EXTT7=Memphis Slim
EXTT8=Sleepy John Estes
EXTT9=Sunnyland Slim
PLAYORDER=
